
        <svg xmlns="http://www.w3.org/2000/svg" width="19" height="18" viewBox="0 0 19 18" fill="none">
<path d="M17.2879 14.064C17.2879 14.352 17.2237 14.648 17.0873 14.936C16.9509 15.224 16.7744 15.496 16.5417 15.752C16.1486 16.184 15.7153 16.496 15.2259 16.696C14.7445 16.896 14.223 17 13.6614 17C12.843 17 11.9685 16.808 11.0459 16.416C10.1232 16.024 9.20053 15.496 8.28589 14.832C7.35369 14.1521 6.47401 13.4033 5.65429 12.592C4.84297 11.7776 4.09467 10.9031 3.41583 9.976C2.75793 9.064 2.2284 8.152 1.84329 7.248C1.45818 6.336 1.26562 5.464 1.26562 4.632C1.26562 4.088 1.3619 3.568 1.55446 3.088C1.74701 2.6 2.05189 2.152 2.47712 1.752C2.9906 1.248 3.55223 1 4.14594 1C4.37059 1 4.59524 1.048 4.79582 1.144C5.00442 1.24 5.18895 1.384 5.33337 1.592L7.19474 4.208C7.33916 4.408 7.44346 4.592 7.51567 4.768C7.58788 4.936 7.62799 5.104 7.62799 5.256C7.62799 5.448 7.57183 5.64 7.45951 5.824C7.35521 6.008 7.20277 6.2 7.01021 6.392L6.40045 7.024C6.31219 7.112 6.27208 7.216 6.27208 7.344C6.27208 7.408 6.2801 7.464 6.29615 7.528C6.32022 7.592 6.34429 7.64 6.36033 7.688C6.50475 7.952 6.75347 8.296 7.10649 8.712C7.46753 9.128 7.85264 9.552 8.26985 9.976C8.7031 10.4 9.1203 10.792 9.54553 11.152C9.96273 11.504 10.3077 11.744 10.5805 11.888C10.6206 11.904 10.6688 11.928 10.7249 11.952C10.7891 11.976 10.8533 11.984 10.9255 11.984C11.0619 11.984 11.1662 11.936 11.2545 11.848L11.8642 11.248C12.0648 11.048 12.2574 10.896 12.4419 10.8C12.6264 10.688 12.811 10.632 13.0115 10.632C13.164 10.632 13.3244 10.664 13.5009 10.736C13.6775 10.808 13.862 10.912 14.0626 11.048L16.7182 12.928C16.9268 13.072 17.0713 13.24 17.1595 13.44C17.2397 13.64 17.2879 13.84 17.2879 14.064Z" stroke="white" stroke-width="1.5" stroke-miterlimit="10"></path>
<path d="M14.2835 7C14.2835 6.48571 13.8801 5.69714 13.2792 5.05429C12.7299 4.46286 12.0003 4 11.2793 4M17.2876 7C17.2876 3.68286 14.6011 1 11.2793 1" stroke="white" stroke-width="1.5" stroke-linecap="round" stroke-linejoin="round"></path>
</svg>
      