
        <svg xmlns="http://www.w3.org/2000/svg" width="16" height="18" viewBox="0 0 16 18" fill="none">
<path d="M7.72273 10.1455C8.05104 10.1455 8.37614 10.081 8.67947 9.9555C8.98279 9.83004 9.25839 9.64614 9.49055 9.41431C9.7227 9.18248 9.90685 8.90725 10.0325 8.60435C10.1581 8.30145 10.2228 7.9768 10.2228 7.64894C10.2228 7.32109 10.1581 6.99644 10.0325 6.69354C9.90685 6.39064 9.7227 6.11541 9.49055 5.88358C9.25839 5.65175 8.98279 5.46785 8.67947 5.34239C8.37614 5.21692 8.05104 5.15234 7.72273 5.15234C7.05967 5.15234 6.42377 5.41538 5.95491 5.88358C5.48606 6.35178 5.22266 6.9868 5.22266 7.64894C5.22266 8.31108 5.48606 8.9461 5.95491 9.41431C6.42377 9.88251 7.05967 10.1455 7.72273 10.1455Z" stroke="white" stroke-width="1.5"></path>
<path d="M1.00702 6.19325C2.58559 -0.736416 12.8663 -0.728413 14.4369 6.20125C15.3584 10.2662 12.8263 13.7071 10.6067 15.8356C9.83106 16.5826 8.79551 17 7.71795 17C6.6404 17 5.60485 16.5826 4.82925 15.8356C2.61765 13.7071 0.0855205 10.2582 1.00702 6.19325Z" stroke="white" stroke-width="1.5"></path>
</svg>
      