<svg xmlns="http://www.w3.org/2000/svg" width="52" height="52" viewBox="0 0 52 52" fill="none"><path d="M8.09647 2.36364H1.18182V0H10.1749L16.5155 35.4545H43.5121L49.6744 10.103L52 10.5309L45.4812 37.8182H14.437L8.09647 2.36364Z" fill="#131414"></path><path d="M27.2023 4.72729L28.8736 6.39712L24.6154 10.6514L37.8182 10.6514V29.5455H35.4546V13.0129L24.6122 13.0129L28.8736 17.2704L27.2022 18.9402L20.2406 11.9849L20.2422 11.9833L20.0909 11.8322L27.2023 4.72729Z" fill="#131414"></path><path d="M45.0909 46.091C45.0909 48.8022 42.893 51.0001 40.1818 51.0001C37.4706 51.0001 35.2727 48.8022 35.2727 46.091C35.2727 43.3798 37.4706 41.1819 40.1818 41.1819C42.893 41.1819 45.0909 43.3798 45.0909 46.091Z" stroke="#131414" stroke-width="2"></path><path d="M23.8182 46.091C23.8182 48.8022 21.6203 51.0001 18.9091 51.0001C16.1979 51.0001 14 48.8022 14 46.091C14 43.3798 16.1979 41.1819 18.9091 41.1819C21.6203 41.1819 23.8182 43.3798 23.8182 46.091Z" stroke="#131414" stroke-width="2"></path></svg>