<!--?xml version="1.0" encoding="UTF-8"?-->
<svg xmlns="http://www.w3.org/2000/svg" width="48" height="48" viewBox="0 0 48 48" fill="none">
  <g clip-path="url(#clip0_627_4)">
    <path d="M19.9496 42.11H18.2896V43.2H15.1696V42.11H13.7896L13.0596 41.25V46.16L14.2996 47.66H19.4896L20.6696 46.48V41.39L19.9496 42.11Z" fill="#222222"></path>
    <path d="M17.7497 42.1101H15.7197V42.6501H17.7497V42.1101Z" fill="#222222"></path>
    <path d="M5.18012 40.6901C5.07012 39.6901 4.46012 33.99 4.18012 31.24C3.44012 31.32 1.07014 31.66 1.02014 32.73C0.970142 33.8 1.46014 38.6 1.83014 41.26C2.80014 41.13 4.01012 40.9201 5.18012 40.6901Z" fill="#222222"></path>
    <path d="M8.2702 30.6199L4.7002 31.1699C5.0002 33.8799 5.5902 39.41 5.7002 40.59C7.4102 40.25 8.97018 39.8999 9.56018 39.7699L8.2702 30.6199Z" fill="#222222"></path>
    <path d="M34.3396 42.1101H32.3096V42.6501H34.3396V42.1101Z" fill="#222222"></path>
    <path d="M15.1301 12.4899C15.0401 11.9099 14.5101 8.72989 14.1301 5.63989C13.7048 5.71706 13.3221 5.94634 13.0535 6.28491C12.7848 6.62349 12.6486 7.04818 12.6701 7.47986C12.6701 8.17986 12.6701 11.67 12.5801 15.58C13.2321 14.4014 14.0966 13.3536 15.1301 12.4899Z" fill="#222222"></path>
    <path d="M28.0095 47.39L28.8895 46.51V41.39L28.1595 42.11H26.5095V43.2H23.3895V42.11H21.9995L21.2695 41.25V46.78L21.8795 47.39H28.0095Z" fill="#222222"></path>
    <path d="M29.6504 40.4099L30.6404 41.5699H31.7704V41.5299H34.8904V41.5699H36.3204L37.2704 40.6199V29.9299H29.6504V40.4099Z" fill="#222222"></path>
    <path d="M25.9597 42.1101H23.9297V42.6501H25.9597V42.1101Z" fill="#222222"></path>
    <path d="M46.3403 38.38C46.3903 37.6 46.4503 36.76 46.5003 35.97H40.6203C40.5203 36.78 40.4203 37.56 40.3203 38.3L46.3403 38.38Z" fill="#222222"></path>
    <path d="M36.2598 12.48C37.2506 13.2783 38.0993 14.2386 38.7698 15.3201L38.4597 6.45007L37.1898 5.59009C36.7214 7.86259 36.4107 10.1646 36.2598 12.48Z" fill="#222222"></path>
    <path d="M35.6597 12.0299C35.7197 11.0299 35.8697 9.70993 36.0797 8.39993C34.4293 7.78729 32.6501 7.60486 30.9097 7.8699C30.8297 8.8699 30.7697 9.86995 30.7197 10.55C32.1143 10.5928 33.4883 10.8981 34.7697 11.45C35.0397 11.6 35.3397 11.7899 35.6597 12.0299Z" fill="#222222"></path>
    <path d="M40.6797 35.4799L46.5397 35.42C46.5397 34.67 46.6397 33.97 46.6797 33.42H46.7797C46.8497 31.78 46.9097 28.34 46.3197 27.93C45.7297 27.52 42.5497 27.4799 41.4497 27.4999C41.3597 29.5399 41.0397 32.5999 40.6797 35.4799Z" fill="#222222"></path>
    <path d="M20.6599 10.5901C20.6599 9.74013 20.6599 8.78007 20.5499 7.78007C19.8699 7.29007 16.1998 7.78003 15.0898 8.49003C15.3298 10.09 15.5498 11.4901 15.6498 12.0801C16.8665 11.2756 18.2663 10.7907 19.7198 10.6701L20.6599 10.5901Z" fill="#222222"></path>
    <path d="M30.9697 7.21003C32.7263 6.98514 34.5111 7.17692 36.1797 7.76997C36.4897 5.89997 36.8697 3.99998 37.1797 2.52998C37.1797 1.32998 37.0197 0.189922 36.4097 0.0999223C35.2297 -0.0600777 32.6297 -0.120053 31.7997 0.499947C31.3994 2.71957 31.1223 4.95975 30.9697 7.21003Z" fill="#222222"></path>
    <path d="M14.9897 7.84009C16.7254 7.09896 18.6299 6.84308 20.4997 7.09997C20.3497 5.09997 20.1197 3.02997 19.9397 1.46997C19.6897 0.76997 19.3997 0.279979 19.0697 0.229979C17.7997 0.00997929 14.8397 0.230018 14.1797 0.770018C14.2497 2.43002 14.6297 5.34009 14.9897 7.84009Z" fill="#222222"></path>
    <path d="M21.2797 10.55C24.2153 10.34 27.1615 10.3199 30.0997 10.49L30.2497 8.41003C28.727 9.11937 27.0859 9.53982 25.4097 9.65002C23.8752 9.53463 22.4065 8.97912 21.1797 8.05005C21.2397 8.94005 21.2697 9.78005 21.2797 10.55Z" fill="#222222"></path>
    <path d="M36.5404 42.11H34.8904V43.2H31.7704V42.11H30.3804L29.6504 41.25V47.19L30.2504 47.78H36.7104L37.2704 47.23V41.39L36.5404 42.11Z" fill="#222222"></path>
    <path d="M32.4895 21.8101H29.7695V24.1701H32.4895V21.8101Z" fill="#222222"></path>
    <path d="M35.11 21.8101H33.04V24.2101H35.11V21.8101Z" fill="#222222"></path>
    <path d="M17.7103 21.8101H16.3203V24.2101H17.7103V21.8101Z" fill="#222222"></path>
    <path d="M25.3196 21.8101H22.0996V24.1701H25.3196V21.8101Z" fill="#222222"></path>
    <path d="M47.1295 34.3301C47.0195 35.8301 46.8795 37.93 46.7695 39.53H47.2495C47.2495 39.53 47.6195 37.11 47.6795 36.27C47.7395 35.43 47.7995 34.3301 47.7995 34.3301H47.1295Z" fill="#222222"></path>
    <path d="M29.1497 21.8101H25.9297V24.1701H29.1497V21.8101Z" fill="#222222"></path>
    <path d="M39.1299 43.03C39.2899 42.27 40.5999 32.96 40.8999 28.19C40.8199 28.36 40.7199 28.49 40.6099 28.46C40.2999 28.4 39.2199 27.25 39.2199 27.25L38.8499 16.75C37.9164 14.7556 36.3949 13.0945 34.4899 11.9899C32.4899 10.8199 24.6799 10.84 19.8099 11.31C15.9299 11.68 13.8099 14.2199 12.5299 16.9799C12.4599 22.4499 12.3899 28.2199 12.3899 28.2199L9.12991 30.52H8.8399L10.2199 40.17L9.96991 40.2299C9.71991 40.2899 4.90992 41.38 1.91992 41.78C1.96356 42.1439 2.03035 42.5046 2.1199 42.8599C2.4199 43.8599 2.4199 46.25 3.9299 46.3699C5.4399 46.4899 11.3599 44.19 11.7199 44.19H12.5399V29.3599H37.8399V46.66L38.0099 46.4899H38.5199C38.6199 45.7199 38.9499 43.7 39.1299 43.03ZM35.6799 24.77H15.7699V21.28H17.7099V16.8499H33.0299V21.28H35.6499L35.6799 24.77Z" fill="#222222"></path>
    <path d="M46.3 38.9299H40.25C39.95 41.1699 39.69 42.8699 39.63 43.1499C39.49 43.7999 39.17 45.7199 39.04 46.5499C39.35 46.6999 43.04 48.4499 43.78 47.9299C44.52 47.4099 45.71 43.2199 45.89 42.4899C45.97 42.1799 46.07 41.5899 46.16 41.0099C46.25 40.4299 46.24 39.7399 46.3 38.9299Z" fill="#222222"></path>
    <path d="M21.51 17.3799H18.25V19.1299H21.51V17.3799Z" fill="#222222"></path>
    <path d="M32.4905 17.3799H29.7305V19.1299H32.4905V17.3799Z" fill="#222222"></path>
    <path d="M25.3496 17.3799H22.0596V19.1299H25.3496V17.3799Z" fill="#222222"></path>
    <path d="M13.0596 40.4099L14.0396 41.5699H15.1696V41.5299H18.2896V41.5699H19.7196L20.6696 40.6199V29.9299H13.0596V40.4099Z" fill="#222222"></path>
    <path d="M21.48 21.8101H18.25V24.1701H21.48V21.8101Z" fill="#222222"></path>
    <path d="M21.2695 40.4099L22.2595 41.5699H23.3895V41.5299H26.5095V41.5699H27.9395L28.8895 40.6199V29.9299H21.2695V40.4099Z" fill="#222222"></path>
    <path d="M32.49 19.6799H18.25V21.2699H32.49V19.6799Z" fill="#222222"></path>
    <path d="M29.1904 17.3799H25.9004V19.1299H29.1904V17.3799Z" fill="#222222"></path>
  </g>
  <defs>
    <clipPath id="clip0_627_4">
      <rect width="46.83" height="48" fill="white" transform="translate(1)"></rect>
    </clipPath>
  </defs>
</svg>
