<!--?xml version="1.0" encoding="UTF-8"?-->
<svg xmlns="http://www.w3.org/2000/svg" width="45" height="48" viewBox="0 0 45 48" fill="none">
  <path d="M17.39 32.27L18.39 33.27V33.32C18.39 33.32 18.58 34.07 18.61 34.22C18.64 34.37 19.14 34.4 19.2 34.53C19.26 34.66 18.98 34.83 18.9 35C18.9354 35.6321 19.1059 36.2493 19.4 36.81C19.64 37.13 19.78 36.9901 19.78 36.9901L19.88 37.53C19.88 37.53 18.3 38.67 17.72 38.97C17.14 39.27 17.03 39.07 17.03 39.07C17.03 39.07 16.03 33.98 15.75 33.52L16.95 32.33C17.0085 32.2764 17.082 32.242 17.1606 32.2313C17.2392 32.2205 17.3193 32.2341 17.39 32.27ZM28.85 31.05C28.256 32.2275 27.5671 33.3545 26.79 34.42C26.5 34.52 24.79 33.35 23.95 32.75C23.29 32.27 21.89 31.19 21.32 30.75L23.69 27.4901C24.06 27.7901 24.95 28.54 25.45 28.94C25.95 29.34 28.07 30.75 28.07 30.75H28.28L28.85 31.05ZM44.39 0.240051C44.5815 0.465413 44.7491 0.71004 44.89 0.970032L43.09 2.77002L42.75 2.90002L37.98 7.67004L38.4 8.09003L38.03 8.47003L38.21 8.64001L37.67 9.18005L36.99 8.51001L35.99 9.51001L36.35 10.05L36.05 10.35L35.81 10.6201L35.89 11.17L23.54 23.9C23.41 24.02 23.33 24.02 23.26 23.9C23.1809 23.8282 23.0974 23.7614 23.01 23.7C22.9606 23.6888 22.9094 23.6888 22.86 23.7C22.79 23.7 22.86 23.86 22.86 23.86L22.32 24.66L21.91 24.2401L21.69 24.31C21.69 24.31 22.12 24.7 22.16 24.86C22.2 25.02 21.96 25.58 22.03 25.67C22.3421 26.0239 22.6761 26.3579 23.03 26.67C23.1645 26.7522 23.3141 26.8066 23.47 26.83L23.57 27.17L21.16 30.55L18.58 33.13L17.58 32.13C17.4976 32.0482 17.3861 32.0023 17.27 32.0023C17.1539 32.0023 17.0424 32.0482 16.96 32.13L15.59 33.34C15.22 33.04 14.42 33.26 14.03 33.66C13.3296 34.5413 12.6914 35.4702 12.12 36.44C11.69 37.15 6.56999 47.44 6.56999 47.44L6.11 47.9301C5.88352 47.8742 5.66971 47.7757 5.48 47.64C5.18 47.43 0.980001 44.28 0.610001 43.97C0.358898 43.7396 0.15215 43.465 0 43.16L0.389999 42.6201L11.87 31.21L11.53 30.85V30.39L11.87 30.05L11.28 28.82L11.5 28.6L10.97 28.07L11.05 27.21L17.74 21.6C17.74 21.6 18.46 21.18 18.85 21.6L20.03 22.79L20.21 22.61L19.97 22.36L20.76 21.85L20.91 21.65L20.65 21.23L33.42 8.93005L33.73 8.86005L34.01 8.58002L33.81 6.97003C33.81 6.97003 33.55 5.23003 33.75 5.03003C33.8025 4.97209 33.8665 4.92579 33.938 4.8941C34.0095 4.86241 34.0868 4.84601 34.165 4.84601C34.2432 4.84601 34.3205 4.86241 34.392 4.8941C34.4635 4.92579 34.5275 4.97209 34.58 5.03003L36.76 7.21002L41.87 2.10004L41.93 1.88L43.81 0C44.0201 0.0310258 44.2194 0.113518 44.39 0.240051ZM15.39 29.46C15.3574 29.4268 15.3185 29.4004 15.2756 29.3823C15.2327 29.3643 15.1866 29.355 15.14 29.355C15.0934 29.355 15.0473 29.3643 15.0044 29.3823C14.9615 29.4004 14.9226 29.4268 14.89 29.46L12.6 31.7401C12.49 31.6801 12.39 31.6601 12.35 31.7401C12.31 31.8201 12.35 32.07 12.61 32.3C12.87 32.53 13.08 32.64 13.17 32.55C13.26 32.46 13.17 32.39 13.11 32.26L15.39 29.97C15.4248 29.9373 15.4525 29.8978 15.4715 29.8539C15.4905 29.8101 15.5003 29.7628 15.5003 29.715C15.5003 29.6672 15.4905 29.62 15.4715 29.5761C15.4525 29.5323 15.4248 29.4928 15.39 29.46ZM19.98 29.8701C19.62 29.5401 19.12 29.8701 19.12 29.8701L18.38 30.61C18.4052 30.9005 18.5051 31.1796 18.67 31.42C18.8668 31.5774 19.1011 31.6808 19.35 31.72L19.3 31.85C19.0579 31.8742 18.8142 31.8254 18.6 31.71C18.3418 31.5278 18.1183 31.3009 17.94 31.04C17.8531 31.2094 17.8163 31.4001 17.834 31.5896C17.8518 31.7791 17.9232 31.9597 18.04 32.11C18.1761 32.2261 18.3425 32.3009 18.5196 32.3257C18.6967 32.3505 18.8773 32.3242 19.04 32.25C19.5527 31.7792 20.0369 31.2784 20.49 30.75C20.4382 30.4024 20.2558 30.0878 19.98 29.8701ZM20.2 24.14C20.1598 24.0967 20.111 24.0622 20.0568 24.0386C20.0026 24.015 19.9441 24.0027 19.885 24.0027C19.8259 24.0027 19.7674 24.015 19.7132 24.0386C19.659 24.0622 19.6102 24.0967 19.57 24.14L16.71 27C16.6667 27.0402 16.6321 27.089 16.6085 27.1432C16.5849 27.1974 16.5727 27.2559 16.5727 27.315C16.5727 27.3741 16.5849 27.4326 16.6085 27.4868C16.6321 27.541 16.6667 27.5898 16.71 27.63C16.7941 27.7125 16.9072 27.7587 17.025 27.7587C17.1428 27.7587 17.2559 27.7125 17.34 27.63L20.2 24.77C20.2824 24.6859 20.3286 24.5728 20.3286 24.455C20.3286 24.3372 20.2824 24.2241 20.2 24.14ZM18.55 22.19C18.4922 22.1304 18.423 22.0831 18.3466 22.0507C18.2702 22.0184 18.188 22.0017 18.105 22.0017C18.022 22.0017 17.9398 22.0184 17.8634 22.0507C17.787 22.0831 17.7178 22.1304 17.66 22.19L13.66 26.19C13.597 26.2474 13.5464 26.3169 13.5111 26.3945C13.4757 26.472 13.4565 26.5559 13.4546 26.6411C13.4526 26.7262 13.4679 26.8109 13.4996 26.89C13.5313 26.969 13.5787 27.0409 13.6389 27.1011C13.6991 27.1614 13.771 27.2087 13.8501 27.2404C13.9291 27.2721 14.0138 27.2874 14.099 27.2855C14.1841 27.2835 14.268 27.2643 14.3455 27.2289C14.4231 27.1936 14.4926 27.143 14.55 27.08L18.55 23.08C18.6655 22.9607 18.73 22.8011 18.73 22.635C18.73 22.4689 18.6655 22.3094 18.55 22.19ZM35.44 6.28003L34.98 6.45001L34.51 5.98004L34.17 6.28003L34.44 8.16003L34.68 8.33002L36.09 6.92004L35.44 6.28003Z" fill="#222222"></path>
</svg>
