<!--?xml version="1.0" encoding="UTF-8"?-->
<svg xmlns="http://www.w3.org/2000/svg" width="48" height="38" viewBox="0 0 48 38" fill="none">
  <path d="M44.59 13.69C45.7 13.23 47.59 12.28 47.59 12.28V10.38C46.6783 8.66908 45.8605 6.90979 45.14 5.10999C45.04 4.40999 47.14 4.25999 46.99 3.26999C46.84 2.27999 44.61 2.32998 44.43 2.06998C44.2704 1.80712 44.1301 1.5331 44.01 1.25L42.43 1.14999L41.58 0H40.2L40 1.07999L4.76001 1.19998L4.34 0.199982L1.95999 0.579987L1.69998 1.22998H0.109985L0 5.60999L0.329987 7.5V9.92999C0.329987 9.92999 0.629982 10.84 1.19998 11.01C1.76998 11.18 1.51 11.41 1.72 12.01C1.83671 12.3108 2.00602 12.5885 2.22 12.83C5.28 12.78 14.22 12.74 14.22 12.74C14.22 12.74 15.42 13.04 15.83 15.33C16.0709 16.8541 16.138 18.4007 16.03 19.94C16.03 19.94 24.23 21.24 25.23 21.24C26.23 21.24 29.34 20.29 29.74 20.84C30.14 21.39 33.89 34.74 33.79 35.39C33.69 36.04 31.89 37.15 32.79 37.5C33.69 37.85 37.74 37.24 39.55 36.7C40.6628 36.3624 41.7948 36.092 42.94 35.89L43.05 35.15C43.05 35.15 45.95 35.39 46.4 34.89C46.85 34.39 46.64 30.45 45.9 28.29C45.16 26.13 42.64 18.99 42.4 17.53C42.16 16.07 43.45 14.13 44.59 13.69ZM40.46 1.23999H41.16V6.14999H40.46V1.23999ZM38.8 1.23999H39.52V6.14999H38.8V1.23999ZM37.15 1.23999H37.87V6.14999H37.15V1.23999ZM35.5 1.23999H36.22V6.14999H35.5V1.23999ZM33.86 1.23999H34.56V6.14999H33.86V1.23999ZM32.19 1.23999H32.91V6.14999H32.19V1.23999ZM30.59 1.23999H31.3V6.14999H30.59V1.23999ZM3.69 4.84L25.69 4.09C25.3752 3.58762 24.8992 3.20686 24.34 3.00998C23.47 2.73998 7.53 2.47998 7.53 2.47998C7.53 2.47998 22.69 2.32998 24.34 2.47998C25.99 2.62998 26.93 4.75998 26.93 4.75998L3.69 4.84ZM28.69 18.46C28.2623 18.954 27.7405 19.3579 27.155 19.6481C26.5696 19.9382 25.9321 20.1089 25.28 20.15C22.9221 20.0199 20.58 19.6853 18.28 19.15C17.08 18.74 16.85 15.96 16.89 14.99C16.93 14.02 18.05 13.45 18.81 13.26C20.3572 13.1889 21.9073 13.2223 23.45 13.36C23.45 13.36 24.4 15.28 23.6 16.59C22.955 17.4625 22.0302 18.0872 20.98 18.36L20.83 18.77C21.4652 18.8481 22.11 18.7727 22.71 18.55C24.06 18.17 24.81 16.44 25.04 15.77C25.3535 15.0792 25.7425 14.4252 26.2 13.82C26.4469 13.6736 26.7415 13.6305 27.02 13.7C27.5606 13.8629 28.0341 14.1961 28.37 14.65C28.9438 15.8411 29.0509 17.2039 28.67 18.47L28.69 18.46ZM26.55 9.60999C24.04 10.02 19.55 10.33 18.98 9.98999C18.41 9.64999 18.03 9.31998 18.19 8.78998C18.3731 8.37245 18.6586 8.00787 19.02 7.72998C21.91 7.72998 38.02 7.62999 38.67 7.64999C39.32 7.66999 38.75 8.64999 38.75 8.64999L37.89 9.92999H34.77C34.6865 9.72167 34.5506 9.53851 34.3753 9.39832C34.2001 9.25812 33.9915 9.1657 33.77 9.13C31.3476 9.10559 28.927 9.26941 26.53 9.62L26.55 9.60999ZM44.41 34.44C42.21 34.54 38.86 34.89 38.06 33.89C37.26 32.89 32.81 16.18 32.96 14.83C33.11 13.48 34.61 12.37 37.42 12.62C35.96 13.18 34.31 13.62 34.07 14.62C33.83 15.62 38.01 31.69 38.56 32.79C39.11 33.89 44.39 34.45 44.39 34.45L44.41 34.44Z" fill="#222222"></path>
</svg>
