<!--?xml version="1.0" encoding="UTF-8"?-->
<svg xmlns="http://www.w3.org/2000/svg" width="48" height="48" viewBox="0 0 48 48" fill="none">
  <g clip-path="url(#clip0_100_291)">
    <path d="M44.42 34.7002H44.34C44.18 34.8302 44.4 35.9202 44.66 36.2902C44.92 36.6602 45.31 36.9902 45.47 36.9902C45.63 36.9902 45.54 36.9902 45.6 36.8802C45.7039 36.5491 45.6752 36.1906 45.52 35.8802C45.4286 35.6179 45.2836 35.3775 45.0942 35.1744C44.9048 34.9712 44.6752 34.8097 44.42 34.7002Z" fill="#222222"></path>
    <path d="M20.85 19.1802C21.8082 18.2629 22.9647 17.5786 24.23 17.1802C20.8274 15.0018 17.2941 13.0348 13.65 11.2902C9.54002 9.55024 0 5.99023 0 5.99023C0 5.99023 0.35001 11.0802 3.76001 14.0802C7.17001 17.0802 16.93 22.4402 16.93 22.4402L17.45 21.5402C17.96 20.2302 18.54 18.5402 18.25 18.4002C17.76 18.1202 10.97 13.7302 9.85999 12.8202C8.74999 11.9102 6.22 9.37024 6.06 9.21024C6.36 9.41024 13.34 14.3102 15.06 15.2702C16.78 16.2302 19.52 17.7002 19.31 18.5402C19.17 19.0902 18.43 21.1402 17.94 22.5402L18.54 22.8402C18.54 22.8402 18.54 24.1602 18.61 25.2802C18.6152 25.86 18.752 26.431 19.01 26.9502C19.1633 26.7614 19.3269 26.5812 19.5 26.4102C18.89 23.7402 19.06 20.7902 20.85 19.1802Z" fill="#222222"></path>
    <path d="M44.5199 32.2701C42.5199 29.9101 30.9299 21.4 28.2799 19.73C27.4999 19.24 26.28 18.45 24.79 17.54C23.4228 17.8699 22.1692 18.5606 21.1599 19.54C19.6399 20.92 19.3899 23.54 19.9099 26.01C20.7699 25.23 22.1399 24.32 23.5499 24.7C25.8499 25.33 27.0299 28.7 27.0299 28.7C27.0299 28.7 34.2099 32.7 36.7199 35.32C39.2299 37.94 41.7199 42.08 42.9199 42.64C44.1199 43.2 47.5199 41.32 47.9199 39.85C48.3199 38.38 46.5399 34.64 44.5199 32.2701ZM46.0099 37.1C45.9638 37.1985 45.8923 37.2829 45.8026 37.3445C45.7129 37.406 45.6084 37.4425 45.4999 37.45C44.9999 37.45 44.4999 36.82 44.3099 36.55C44.1199 36.28 43.6499 34.88 43.9899 34.41C44.0613 34.322 44.1596 34.2596 44.2697 34.2325C44.3798 34.2054 44.4958 34.2151 44.5999 34.26C44.9216 34.3968 45.2113 34.5991 45.4506 34.8539C45.6899 35.1086 45.8735 35.4104 45.9899 35.74C46.0891 35.9525 46.1422 36.1835 46.1456 36.4179C46.149 36.6523 46.1028 36.8848 46.0099 37.1Z" fill="#222222"></path>
  </g>
  <defs>
    <clipPath id="clip0_100_291">
      <rect width="48" height="36.69" fill="white" transform="translate(0 6)"></rect>
    </clipPath>
  </defs>
</svg>