<!--?xml version="1.0" encoding="UTF-8"?-->
<svg xmlns="http://www.w3.org/2000/svg" width="48" height="48" viewBox="0 0 48 48" fill="none">
  <g clip-path="url(#clip0_8_1070)">
    <g clip-path="url(#clip1_8_1070)">
      <path d="M39.26 11.1999C39.26 11.1999 39.1 11.0599 39.93 11.4699C40.1297 11.552 40.3481 11.5778 40.5613 11.5443C40.7746 11.5109 40.9746 11.4196 41.1396 11.2804C41.3046 11.1412 41.4283 10.9594 41.4971 10.7548C41.566 10.5501 41.5773 10.3306 41.53 10.1199C41.39 9.11993 40.42 9.11992 39.39 9.41992C39.39 9.41992 36.25 10.8899 35.91 11.5699C35.7806 11.8089 35.7478 12.0884 35.8185 12.3508C35.8892 12.6132 36.058 12.8384 36.29 12.9799L35.19 12.9199L34.19 9.49994H33.51L34.51 12.8899H33.96L32.96 9.43994H32.27L33.27 12.8599H32.73L31.73 9.38992H31.04L32.04 12.8199H31.5L30.5 9.33994H29.81L30.81 12.7899H30.26L29.26 9.27994H28.57L29.57 12.7699H29.03L28.03 9.23993H27.34L28.34 12.7299L10.84 11.8899C10.84 11.8899 9.6 10.6499 5.69 10.3399L1.03003 9.95993C1.03608 8.99661 1.33611 8.0581 1.89001 7.26993L37.89 8.70993L38.44 8.16992L38.49 7.16992H39.39V7.67993L39.88 8.42993C40.3615 8.5056 40.8387 8.60572 41.31 8.72992C41.9447 8.95075 42.5416 9.26778 43.08 9.66992C43.369 9.5873 43.6704 9.55682 43.97 9.57993C44.281 9.67898 44.5692 9.83869 44.8181 10.0498C45.067 10.2609 45.2716 10.5193 45.42 10.8099C45.5183 11.3992 45.5183 12.0007 45.42 12.5899C45.42 12.5899 45.48 12.9199 45.56 13.3899L37 12.9699C37.8296 12.4844 38.5898 11.889 39.26 11.1999Z" fill="#222222"></path>
      <path d="M47.38 35.31C46.6 31.59 43.92 25.31 43.44 24.12C42.96 22.93 41.25 21.02 41.53 19.96C41.81 18.9 43.92 18.7599 44.63 18.5399C45.34 18.3199 45.69 16.54 45.76 15.66C45.7698 15.0971 45.7263 14.5346 45.63 13.9799L10.81 12.24C9.93507 11.7815 9.02963 11.3839 8.10004 11.0499C5.76768 10.5507 3.38441 10.3292 1 10.3899C1.04706 11.182 1.2192 11.9617 1.51001 12.6999C2.14001 14.3199 2.51001 14.3899 2.51001 14.3899C4.17985 14.335 5.85145 14.4085 7.51001 14.6099C9.00984 15.1304 10.5351 15.5743 12.08 15.94C13.08 16.08 13.28 16.0799 13.28 16.0799C13.28 16.0799 11.89 19.53 12.89 21.68C13.89 23.83 17.26 24.85 19.1 25.13C20.8329 25.4234 22.6081 25.3485 24.31 24.91C25.64 24.5 25.64 24 26.71 24.5C27.1637 24.6259 27.5771 24.8671 27.91 25.2C28.2429 25.5329 28.484 25.9463 28.61 26.4C29.09 27.66 31 41.69 31 41.69L29.73 42.32L29.8 43.59C29.8 43.59 35.37 44.59 38.19 44.2999C39.6923 44.1923 41.166 43.834 42.55 43.24C43.2526 43.8443 44.1657 44.1462 45.09 44.0799C46.29 43.8099 46.64 42.18 46.64 42.18L47.49 41.97C47.8971 39.7648 47.8597 37.5005 47.38 35.31ZM23.84 23.31C21.9669 23.6976 20.0274 23.6221 18.19 23.09C16.45 22.7 14.46 22.17 13.88 21.38C13.5898 21.0139 13.4262 20.5636 13.4136 20.0966C13.401 19.6296 13.54 19.1712 13.81 18.7899C14.2259 18.2843 14.7352 17.8634 15.31 17.5499C16.7372 17.2552 18.2025 17.191 19.65 17.3599C19.9803 17.4205 20.3145 17.4573 20.65 17.47C20.6244 17.906 20.5101 18.3322 20.3141 18.7225C20.1181 19.1128 19.8445 19.459 19.51 19.74C18.5824 20.2026 17.5969 20.5389 16.58 20.74L16.48 21.2899C16.9774 21.5121 17.5143 21.6319 18.0589 21.6422C18.6035 21.6525 19.1446 21.5531 19.65 21.35C20.7212 20.655 21.637 19.7459 22.34 18.68L24 18.0499C24 18.0499 26.1 19.52 25.94 20.4C25.78 21.28 25.61 22.7599 23.89 23.2899L23.84 23.31ZM34.66 40.5799C33.81 40.0199 32.3 27.5799 32.23 26.1699C32.16 24.7599 31.31 23.3599 31.23 22.5099C31.15 21.6599 31.87 21.81 32.86 21.91C34.6917 21.8262 36.5089 21.5445 38.28 21.07C38.95 20.82 39.48 20.2199 40.43 20.2899C41.38 20.3599 42.43 24.17 42.43 24.5C41.883 23.7141 41.4014 22.8846 40.99 22.02C40.54 20.96 39.9 21.02 39.23 21.49C38.56 21.96 34.02 22.62 32.78 22.65C31.54 22.68 32.47 23.65 32.54 24.27C32.61 24.89 34.4 39.49 35.14 40.06C35.88 40.63 43.04 40.44 43.04 40.44C43.04 40.44 35.5 41.13 34.66 40.56V40.5799Z" fill="#222222"></path>
    </g>
  </g>
  <defs>
    <clipPath id="clip0_8_1070">
      <rect width="48" height="48" fill="white"></rect>
    </clipPath>
    <clipPath id="clip1_8_1070">
      <rect width="46.74" height="37.39" fill="white" transform="translate(1 7)"></rect>
    </clipPath>
  </defs>
</svg>
